<?xml version="1.0" encoding="UTF-8" standalone="no"?>
<svg xmlns="http://www.w3.org/2000/svg" id="svg2989" width="18" height="18" version="1.1" viewBox="0 -256 1792 1792">
  <g id="g2991" transform="matrix(1 0 0 -1 129.08475 1277.8305)">
    <path id="path2993" d="M1280 576v128q0 26-19 45t-45 19H714l189 189q19 19 19 45t-19 45l-91 91q-18 18-45 18t-45-18L360 776l-91-91q-18-18-18-45t18-45l91-91 362-362q18-18 45-18t45 18l91 91q18 18 18 45t-18 45L714 512h502q26 0 45 19t19 45zm256 64q0-209-103-385.5T1153.5-25Q977-128 768-128T382.5-25Q206 78 103 254.5T0 640q0 209 103 385.5T382.5 1305Q559 1408 768 1408t385.5-103q176.5-103 279.5-279.5T1536 640z" style="fill:#fffa"/>
  </g>
</svg>